# xmcd CD database file
#
# Track frame offsets:
#	150
#	42688
#	71067
#	105918
#	133085
#	150896
#	192195
#	209913
#	224532
#	237046
#	248992
#
# Disc length: 3781 seconds
#
# Revision: 0
# Processed by: cddbd v1.5.2PL0 Copyright (c) Steve Scherf et al.
# Submitted via: CDex 1.70beta2
#
DISCID=a30ec30b
DTITLE=Patrick Lampron - Walking the Path
DYEAR=2012
DGENRE=Jazz
TTITLE0=Walking The Path  
TTITLE1=Claim of Right
TTITLE2=Ils Rient, Eux... 
TTITLE3=Tabac et Biere
TTITLE4=The Indonesian Blues
TTITLE5=Notice of Understanding 
TTITLE6=Rire Jaune 
TTITLE7=tite Suite 
TTITLE8=I'm Not Traffic 
TTITLE9=Unpatriotic 
TTITLE10=Nouvelle Ere
EXTD=YEAR: 2012
EXTT0=
EXTT1=
EXTT2=
EXTT3=
EXTT4=
EXTT5=
EXTT6=
EXTT7=
EXTT8=
EXTT9=
EXTT10=
PLAYORDER=
